<svg clip-rule="evenodd" fill-rule="evenodd" height="512" image-rendering="optimizeQuality" shape-rendering="geometricPrecision" text-rendering="geometricPrecision" viewBox="0 0 512 512" width="512" xmlns="http://www.w3.org/2000/svg"><g id="Layer_x0020_1"><g id="_209036656"><g><g id="_209034712"><path d="m472 419h-432c-9 0-16-8-16-17v-292c0-10 7-17 16-17h86c3 0 6 2 6 6v217h248v-127c0-1 0-2 1-3l52-90c1-2 3-3 5-3h34c9 0 16 7 16 17v292c0 9-7 17-16 17zm-432-314c-1 0-2 0-3 1s-1 2-1 4v292c0 3 2 5 4 5h432c2 0 4-2 4-5v-292c0-3-2-5-4-5h-30l-50 86v131c0 4-3 6-6 6h-260c-3 0-6-2-6-6v-217z"/></g><g id="_209036272"><path d="m482 360h-452c-4 0-6-3-6-6s2-6 6-6h452c4 0 6 3 6 6s-2 6-6 6z"/></g><g id="_209036608"><path d="m295 472h-78c-3 0-6-2-6-6v-53c0-3 3-6 6-6h78c3 0 6 3 6 6v53c0 4-3 6-6 6zm-72-12h66v-41h-66z"/></g><g id="_209036968"><path d="m358 512h-204c-2 0-3-1-4-2s-2-2-2-4v-20c0-14 12-26 26-26h164c14 0 26 12 26 26v20c0 3-3 6-6 6zm-198-12h192v-14c0-7-6-14-14-14h-164c-8 0-14 7-14 14z"/></g><g id="_209036704"><path d="m357 403c-11 0-20-9-20-20 0-10 9-19 20-19s20 9 20 19c0 11-9 20-20 20zm0-27c-4 0-8 3-8 7 0 5 4 8 8 8s8-3 8-8c0-4-4-7-8-7z"/></g><g id="_209036776"><path d="m409 403c-11 0-20-9-20-20 0-10 9-19 20-19s19 9 19 19c0 11-8 20-19 20zm0-27c-4 0-8 3-8 7 0 5 4 8 8 8s7-3 7-8c0-4-3-7-7-7z"/></g><g id="_209036872"><path d="m386 328h-260c-3 0-6-2-6-6v-302c0-3 3-6 6-6h260c3 0 6 3 6 6v68c0 1 0 2-1 3l-70 121-6 49 40-30 26-45c1-2 4-3 7-3 2 1 4 4 4 6v133c0 4-3 6-6 6zm-254-12h248v-104l-15 26c-1 1-1 2-2 2l-52 39c-2 2-4 2-6 1-2-2-4-4-3-6l8-65c0-1 0-2 0-2l70-121v-60h-248z"/></g><g id="_209036896"><path d="m216 222c-39 0-71-32-71-72 0-39 32-71 71-71 40 0 72 32 72 71 0 40-32 72-72 72zm0-131c-33 0-59 26-59 59s26 60 59 60 60-27 60-60-27-59-60-59z"/></g><g id="_209036728"><path d="m208 174c-2 0-3-1-4-2l-19-18c-2-3-2-7 0-9 3-2 6-2 9 0l14 14 31-30c2-3 6-3 8 0 3 2 3 6 0 8l-35 35c-1 1-2 2-4 2z"/></g><g id="_209037592"><path d="m171 280h-22c-4 0-6-2-6-6 0-3 2-6 6-6h22c3 0 6 3 6 6 0 4-3 6-6 6z"/></g><g id="_209037424"><path d="m219 280h-22c-3 0-6-2-6-6 0-3 3-6 6-6h22c3 0 6 3 6 6 0 4-3 6-6 6z"/></g><g id="_209037472"><path d="m267 280h-22c-3 0-6-2-6-6 0-3 3-6 6-6h22c3 0 6 3 6 6 0 4-3 6-6 6z"/></g><g id="_209037616"><path d="m315 280h-22c-3 0-6-2-6-6 0-3 3-6 6-6h22c3 0 6 3 6 6 0 4-3 6-6 6z"/></g><g id="_209037544"><path d="m363 280h-22c-3 0-6-2-6-6 0-3 3-6 6-6h22c4 0 6 3 6 6 0 4-2 6-6 6z"/></g><g id="_209037280"><path d="m308 280c-1 0-2 0-3 0-2-2-4-4-3-6l8-65c0-2 1-4 3-5 2 0 4 0 6 1l44 25c1 1 3 3 3 5s-1 4-3 5l-52 39c-1 1-2 1-3 1zm12-60-5 41 34-25z"/></g><g id="_209036992"><path d="m360 241c-1 0-2 0-3-1l-44-25c-2-1-3-2-3-4-1-1 0-3 0-4l101-174c2-3 5-4 8-3l44 26c2 1 3 2 3 3 0 2 0 4-1 5l-100 174c-1 2-3 3-5 3zm-36-33 33 19 95-164-34-19z"/></g><g id="_209037736"><path d="m460 67c-1 0-2 0-3-1l-44-25c-3-2-4-6-2-8l17-30c1-1 2-2 4-3 1 0 3 0 4 1l44 25c3 2 4 6 2 8l-17 30c-1 2-3 3-5 3zm-36-34 34 20 11-19-34-20z"/></g></g></g></g></svg>